<svg xmlns="http://www.w3.org/2000/svg" width="151.206" height="23.925" viewBox="0 0 151.206 23.925">
  <path id="Path_1" data-name="Path 1" d="M.066-17.853v3.993h1.98v9.5a8.328,8.328,0,0,0,.28,2.392,2.625,2.625,0,0,0,.891,1.37,3.18,3.18,0,0,0,1.567.577A19.67,19.67,0,0,0,7.1.1Q7.854.1,8.679.049T10.329,0V-3.96H9.4a1.561,1.561,0,0,1-1.073-.314,1.4,1.4,0,0,1-.346-1.073V-13.86h2.343v-3.993H7.986V-23.1H2.046v5.247Zm9.8-5.709v4.422h5.94v-4.422Zm0,5.709V0h5.94V-17.853Zm15.477,7H30.69a13.705,13.705,0,0,0-.313-3.052,5.765,5.765,0,0,0-1.089-2.343,5.113,5.113,0,0,0-2.079-1.518,8.568,8.568,0,0,0-3.284-.545,14.131,14.131,0,0,0-3.135.33,5.29,5.29,0,0,0-2.525,1.353,6.981,6.981,0,0,0-1.7,2.937,16.778,16.778,0,0,0-.627,5.082,15.848,15.848,0,0,0,.561,4.67A6.447,6.447,0,0,0,18.068-1.2,4.839,4.839,0,0,0,20.493.066a15.331,15.331,0,0,0,3.135.3q3.8,0,5.478-1.782a5.564,5.564,0,0,0,1.221-2.442,15.361,15.361,0,0,0,.363-3.6H25.344V-6.3a4.25,4.25,0,0,1-.446,2.31,1.465,1.465,0,0,1-1.271.627,1.41,1.41,0,0,1-.841-.247,1.644,1.644,0,0,1-.545-.875,7.86,7.86,0,0,1-.281-1.7q-.083-1.072-.083-2.723t.083-2.722a8.164,8.164,0,0,1,.281-1.716,1.654,1.654,0,0,1,.545-.891,1.41,1.41,0,0,1,.841-.248,1.332,1.332,0,0,1,1.32.759,4.084,4.084,0,0,1,.3,1.106A12.667,12.667,0,0,1,25.344-10.857Zm5.016-12.7V0H36.3V-4.587l.99-1.551,3,6.138h6.336L41.052-10.494,46-17.853H39.666l-3.3,6.171H36.3v-11.88ZM53.889-11.946v.792H50.622v-.792a4.694,4.694,0,0,1,.347-2.079,1.3,1.3,0,0,1,1.271-.66,1.335,1.335,0,0,1,1.3.66A4.694,4.694,0,0,1,53.889-11.946ZM50.622-7.92h8.811V-9.735a15.768,15.768,0,0,0-.445-4.076,6.378,6.378,0,0,0-1.353-2.64,5.033,5.033,0,0,0-2.244-1.435,10.224,10.224,0,0,0-3.118-.429,10.31,10.31,0,0,0-3.448.512,5.29,5.29,0,0,0-2.36,1.633,7.12,7.12,0,0,0-1.353,2.9,18.912,18.912,0,0,0-.429,4.356,21.1,21.1,0,0,0,.38,4.323A6.783,6.783,0,0,0,46.332-1.7,4.9,4.9,0,0,0,48.675-.116a11.624,11.624,0,0,0,3.6.479q3.7,0,5.313-1.667A7.083,7.083,0,0,0,59.268-6.27H53.922a4.689,4.689,0,0,1-.445,2.458,1.422,1.422,0,0,1-1.238.644,1.573,1.573,0,0,1-1.122-.479,2.735,2.735,0,0,1-.5-1.931Zm7.524-9.933v3.993h1.98v9.5a8.328,8.328,0,0,0,.28,2.392A2.625,2.625,0,0,0,61.3-.594a3.18,3.18,0,0,0,1.568.577A19.67,19.67,0,0,0,65.175.1q.759,0,1.584-.049T68.409,0V-3.96h-.924a1.561,1.561,0,0,1-1.073-.314,1.4,1.4,0,0,1-.347-1.073V-13.86h2.343v-3.993H66.066V-23.1h-5.94v5.247ZM73.887-8.91q0-1.452.066-2.409a6.856,6.856,0,0,1,.247-1.534,1.494,1.494,0,0,1,.512-.809,1.4,1.4,0,0,1,.825-.231,1.465,1.465,0,0,1,.858.231,1.494,1.494,0,0,1,.511.809,6.856,6.856,0,0,1,.247,1.534q.066.957.066,2.409,0,1.419-.066,2.376A6.856,6.856,0,0,1,76.906-5a1.494,1.494,0,0,1-.511.809,1.465,1.465,0,0,1-.858.231,1.4,1.4,0,0,1-.825-.231A1.494,1.494,0,0,1,74.2-5a6.856,6.856,0,0,1-.247-1.534Q73.887-7.491,73.887-8.91Zm-5.94-14.652V0h5.742V-2.442h.066A4.387,4.387,0,0,0,75.273-.3a4.4,4.4,0,0,0,2.541.66A4.264,4.264,0,0,0,81.972-1.98Q83.16-4.323,83.16-9.306a20.557,20.557,0,0,0-.38-4.307,8.146,8.146,0,0,0-1.073-2.772,3.951,3.951,0,0,0-1.716-1.485,5.731,5.731,0,0,0-2.31-.446,4.673,4.673,0,0,0-2.26.545,3.224,3.224,0,0,0-1.468,1.931h-.066v-7.722Zm15.345,0V0h5.94V-23.562ZM96.36-3.531A1.254,1.254,0,0,1,95.3-4.059a2.311,2.311,0,0,1-.4-1.419,3.312,3.312,0,0,1,.264-1.436,1.925,1.925,0,0,1,.957-.875,4.693,4.693,0,0,1,1.2-.38,1.162,1.162,0,0,0,.809-.445h.066v2.145a4.46,4.46,0,0,1-.429,2.211A1.518,1.518,0,0,1,96.36-3.531ZM98.571,0h5.742a4.539,4.539,0,0,1-.462-1.65,21.75,21.75,0,0,1-.1-2.211v-8.712a6.834,6.834,0,0,0-.511-2.854,4.209,4.209,0,0,0-1.452-1.749,5.86,5.86,0,0,0-2.244-.891,15.329,15.329,0,0,0-2.854-.247,12.492,12.492,0,0,0-2.211.215,6.176,6.176,0,0,0-2.211.858,5.248,5.248,0,0,0-1.716,1.815,6.094,6.094,0,0,0-.693,3.118h5.148a3.291,3.291,0,0,1,.429-1.9,1.536,1.536,0,0,1,1.254-.478q1.518,0,1.518,1.65a1.851,1.851,0,0,1-.4,1.271,2.6,2.6,0,0,1-1.353.676l-2.343.561a10.854,10.854,0,0,0-2.376.809,4.616,4.616,0,0,0-1.518,1.155,4.154,4.154,0,0,0-.808,1.6,8.48,8.48,0,0,0-.248,2.178,7.93,7.93,0,0,0,.264,2.112,4.221,4.221,0,0,0,.858,1.65A3.627,3.627,0,0,0,91.823.016a6.667,6.667,0,0,0,2.294.347,4.989,4.989,0,0,0,2.458-.594,3.512,3.512,0,0,0,1.568-1.782h.066q.066.561.132,1.056A4.674,4.674,0,0,0,98.571,0Zm10.593-5.544H103.95a5.678,5.678,0,0,0,1.633,4.422Q107.217.363,110.946.363a10.625,10.625,0,0,0,3.02-.4,5.914,5.914,0,0,0,2.244-1.188,5.479,5.479,0,0,0,1.4-1.881,5.754,5.754,0,0,0,.5-2.409,5.187,5.187,0,0,0-.644-2.755,5.108,5.108,0,0,0-1.6-1.65,8.149,8.149,0,0,0-2.062-.941q-1.105-.33-2.062-.627a7.606,7.606,0,0,1-1.6-.677,1.238,1.238,0,0,1-.643-1.139,1.267,1.267,0,0,1,.429-1.023,1.628,1.628,0,0,1,1.089-.363,1.585,1.585,0,0,1,1.172.412A2.233,2.233,0,0,1,112.6-12.7h5.148q0-5.61-6.7-5.61a10.348,10.348,0,0,0-3.151.429,6.233,6.233,0,0,0-2.211,1.188,4.827,4.827,0,0,0-1.3,1.766,5.539,5.539,0,0,0-.429,2.194,5.115,5.115,0,0,0,.644,2.722,5.278,5.278,0,0,0,1.6,1.667,8.7,8.7,0,0,0,2.063.99q1.105.363,2.063.693a7.006,7.006,0,0,1,1.6.759,1.382,1.382,0,0,1,.644,1.221,1.336,1.336,0,0,1-.512,1.122,1.91,1.91,0,0,1-1.2.4,1.423,1.423,0,0,1-1.254-.627,1.85,1.85,0,0,1-.33-.759A4.72,4.72,0,0,1,109.164-5.544Zm7.755-12.309v3.993h1.98v9.5a8.328,8.328,0,0,0,.281,2.392,2.625,2.625,0,0,0,.891,1.37,3.18,3.18,0,0,0,1.568.577,19.67,19.67,0,0,0,2.31.115q.759,0,1.584-.049T127.182,0V-3.96h-.924a1.561,1.561,0,0,1-1.073-.314,1.4,1.4,0,0,1-.346-1.073V-13.86h2.343v-3.993h-2.343V-23.1H118.9v5.247ZM135.3-11.946v.792h-3.267v-.792a4.694,4.694,0,0,1,.346-2.079,1.3,1.3,0,0,1,1.27-.66,1.335,1.335,0,0,1,1.3.66A4.694,4.694,0,0,1,135.3-11.946ZM132.033-7.92h8.811V-9.735a15.769,15.769,0,0,0-.445-4.076,6.378,6.378,0,0,0-1.353-2.64,5.033,5.033,0,0,0-2.244-1.435,10.224,10.224,0,0,0-3.118-.429,10.31,10.31,0,0,0-3.449.512,5.29,5.29,0,0,0-2.359,1.633,7.12,7.12,0,0,0-1.353,2.9,18.912,18.912,0,0,0-.429,4.356,21.1,21.1,0,0,0,.379,4.323A6.783,6.783,0,0,0,127.743-1.7a4.9,4.9,0,0,0,2.343,1.584,11.624,11.624,0,0,0,3.6.479q3.7,0,5.313-1.667a7.083,7.083,0,0,0,1.683-4.966h-5.346a4.689,4.689,0,0,1-.445,2.458,1.422,1.422,0,0,1-1.238.644,1.573,1.573,0,0,1-1.122-.479,2.735,2.735,0,0,1-.495-1.931Zm8.481-9.933V0h5.94V-9.735a3,3,0,0,1,.874-2.475,3.869,3.869,0,0,1,2.459-.693q.363,0,.726.033t.759.1v-5.544h-.957a3.848,3.848,0,0,0-2.409.842,4.753,4.753,0,0,0-1.584,2.458h-.066v-2.838Z" transform="translate(-0.066 23.562)" fill="#fff"/>
</svg>
